<?xml version="1.0" encoding="UTF-8" standalone="no"?>
<!DOCTYPE svg PUBLIC "-//W3C//DTD SVG 1.1//EN" "http://www.w3.org/Graphics/SVG/1.1/DTD/svg11.dtd">
<svg width="100%" height="100%" viewBox="0 0 367 370" version="1.1" xmlns="http://www.w3.org/2000/svg" xmlns:xlink="http://www.w3.org/1999/xlink" xml:space="preserve" xmlns:serif="http://www.serif.com/" style="fill-rule:evenodd;clip-rule:evenodd;stroke-linejoin:round;stroke-miterlimit:2;">
    <g transform="matrix(1,0,0,1,-5524.54,-1647.14)">
        <g transform="matrix(1.36882,0,0,1.63636,5070.81,1292)">
            <g transform="matrix(0.730556,0,0,0.611111,-3704.51,-789.556)">
                <path d="M5781.85,1897.83C5770.53,1889.43 5759.23,1881.03 5748.01,1872.5C5741.94,1867.89 5733.34,1858.58 5726.16,1856.35C5720.79,1854.68 5716.17,1856.42 5710.96,1851.85C5706.17,1847.64 5707.66,1843.28 5703.5,1847.38C5701.04,1849.8 5698.99,1859.01 5697.14,1862.47C5690.87,1874.19 5683.5,1885.32 5677.12,1896.74C5671.24,1907.25 5666.65,1920.26 5657.97,1929.01C5647.09,1939.99 5632.27,1926.97 5622.48,1938.37C5611.65,1950.96 5602.9,1963.56 5594.22,1977.58C5590.76,1983.17 5588.89,1985.59 5593.96,1991.99C5595.81,1994.32 5598.54,1995.93 5600.73,1997.75C5600.72,1997.74 5605.38,2000.67 5604.85,1999.37C5609.02,2009.75 5568.99,2006.51 5562.27,1997.55C5561.92,1993.32 5564.11,1982.78 5567.48,1979.58C5569.37,1977.8 5571.85,1978.54 5574.31,1977C5580.09,1973.39 5587.54,1958.37 5588.61,1952.2C5591.06,1937.95 5573.76,1922.42 5576.33,1907.64C5577.09,1903.26 5580.23,1898.4 5584.31,1896.94C5592.39,1894.07 5594.13,1901.48 5599.55,1904.22C5605.59,1907.26 5619.64,1906.14 5624.06,1901.37C5628.65,1896.42 5630.4,1878 5626.62,1871.79C5624.89,1868.94 5617.08,1868.45 5616.15,1865.43C5615.62,1863.69 5618.91,1861.47 5620.26,1859.82C5625.13,1853.91 5623.52,1844.79 5623.99,1835.8C5624.51,1825.94 5624.68,1810.78 5629.35,1802.21C5633.23,1795.07 5639.68,1794.21 5629.95,1788.94C5623.61,1785.5 5607.7,1778.46 5606.23,1770.81C5604.7,1762.89 5614.27,1752.61 5618.71,1747.07C5620.05,1745.42 5623.38,1742.91 5623.96,1740.81C5624.95,1737.25 5621.68,1736.41 5622.54,1732.44C5623.65,1727.32 5639.98,1716.29 5644.4,1712.75C5650.86,1707.57 5659.58,1705.15 5667.39,1702.4C5672.51,1700.6 5682.25,1699.62 5685.65,1694.93C5686.67,1693.52 5689.14,1682.12 5685.23,1681.35C5683.06,1680.93 5680.53,1685.79 5678.99,1687.61C5675.3,1692 5673.31,1691.7 5669.72,1691.75C5670.87,1691.73 5668.4,1689.41 5667.17,1689.39C5665.93,1689.37 5661.22,1691.52 5660.15,1692.14C5657.69,1693.59 5654.83,1699.14 5650.24,1696.87C5647.74,1695.65 5645.83,1687.44 5646.31,1685.1C5646.72,1683.03 5655.55,1674 5653.53,1672.22C5652.09,1670.95 5645.52,1676.52 5642.92,1671.82C5640.22,1666.93 5654.91,1657.71 5657.12,1655.94C5661.21,1657.94 5668.33,1656.02 5672.89,1655.62C5679.47,1655.04 5679.89,1654.67 5684.44,1656.68C5685.35,1646.8 5703.75,1646.54 5710.19,1647.51C5726.82,1650.02 5728.16,1661.89 5725.92,1676.56C5725.19,1681.33 5723.81,1686.83 5721.93,1691.34C5719.06,1698.18 5715.08,1699.75 5719.48,1705.15C5722.91,1709.37 5730.55,1709.85 5734.36,1713.48C5736.25,1715.27 5737.56,1718.8 5738.84,1721.18C5740.53,1725.93 5745.17,1739.11 5743.44,1743.54C5742.59,1745.73 5739.94,1745.93 5738.28,1747.87C5737.71,1748.52 5738.69,1750.32 5738.17,1751.11C5737.93,1751.48 5735.25,1752.46 5735.34,1752.22C5728.7,1769.94 5734.59,1790.14 5727.95,1807.72C5723.54,1819.41 5721.76,1827.94 5725.88,1839.3C5731.26,1854.14 5743.16,1861.81 5755.68,1871.15C5765.36,1878.36 5774.96,1885.68 5784.54,1893.02C5791.67,1879.93 5797.75,1866.21 5802.91,1851.93C5809.89,1832.61 5814.99,1812.8 5818.26,1792.51C5820.02,1781.52 5821.31,1770.49 5822.19,1759.39C5822.82,1751.47 5823.2,1743.55 5823.23,1735.61C5823.24,1733.85 5822.7,1732.87 5821.13,1731.98C5800.26,1720.23 5778.17,1711.59 5754.98,1705.69C5748.19,1703.96 5741.34,1702.49 5734.44,1701.25C5734.2,1701.21 5733.98,1701.09 5733.61,1700.95C5735.71,1693.21 5737.22,1685.37 5738.19,1677.12C5741.57,1677.37 5744.66,1678.15 5747.76,1678.81C5767.97,1683.08 5787.63,1689.14 5806.59,1697.39C5817.6,1702.17 5828.25,1707.65 5838.58,1713.76C5842.82,1716.26 5846.02,1719.58 5847.32,1724.48C5847.71,1725.91 5847.96,1727.37 5847.91,1728.84C5847.59,1737.75 5847.89,1746.67 5847.16,1755.58C5846.26,1766.42 5845.33,1777.25 5843.81,1788.03C5841.61,1803.59 5838.48,1818.94 5834.32,1834.09C5827.18,1860.11 5817.37,1884.91 5804.27,1908.16C5811.92,1914.03 5819.58,1919.88 5827.29,1925.67C5836.84,1932.85 5844.26,1936.72 5855.88,1939.82C5862.22,1941.52 5868.06,1942.17 5874.52,1940.93C5878.91,1940.09 5880.37,1937.87 5884.84,1940.07C5887.73,1941.5 5891.66,1947.2 5891.46,1950.43C5890.69,1962.31 5865.2,1958.74 5858.27,1957.65C5846.9,1955.87 5848.95,1953.8 5843.47,1945.24C5840.44,1940.51 5833.94,1936.99 5829.56,1933.62C5820.34,1926.53 5811.05,1919.54 5801.72,1912.59C5797.53,1919.74 5793.01,1926.74 5788.16,1933.57C5766,1964.77 5738.66,1990.31 5705.15,2009.02C5701.45,2011.09 5697.69,2013.06 5693.91,2015C5689.35,2017.33 5684.65,2017.5 5679.99,2015.37C5669.95,2010.76 5660.41,2005.27 5651.25,1999.1C5638.94,1990.81 5627.39,1981.57 5616.64,1971.34C5616.18,1970.89 5615.56,1970.6 5614.99,1970.22C5620.16,1963.27 5625.01,1956.73 5629.98,1950.05C5630.8,1950.84 5631.49,1951.5 5632.19,1952.17C5647.86,1967.3 5665.11,1980.28 5684.52,1990.29C5685.78,1990.94 5686.73,1991.14 5688.1,1990.42C5710.18,1978.69 5729.71,1963.69 5746.82,1945.44C5760.54,1930.79 5772.12,1914.86 5781.85,1897.83ZM5695.56,1954.35C5695.56,1959.24 5691.38,1963.2 5686.23,1963.2C5681.07,1963.2 5676.89,1959.24 5676.89,1954.35C5676.89,1949.47 5681.07,1945.51 5686.23,1945.51C5691.38,1945.51 5695.56,1949.47 5695.56,1954.35ZM5637.93,1701.15C5635.72,1702.06 5633.34,1702.21 5631.05,1702.67C5607.2,1707.52 5584.35,1715.27 5562.57,1726.14C5558.64,1728.11 5554.82,1730.32 5550.91,1732.36C5549.7,1733 5549.19,1733.72 5549.28,1735.21C5549.76,1743.87 5550.03,1752.55 5550.52,1761.21C5550.86,1767.17 5551.67,1773.09 5552.52,1779C5553.89,1788.55 5555.28,1798.09 5557.24,1807.54C5562.85,1834.62 5571.64,1860.59 5584.04,1885.33C5584.4,1886.06 5584.76,1886.79 5585.23,1887.75C5577.78,1891.13 5570.77,1895.19 5564.75,1900.96C5563.92,1900.3 5563.66,1899.41 5563.27,1898.66C5551.96,1876.63 5543.39,1853.57 5537.15,1829.63C5533.11,1814.1 5530.34,1798.34 5528.22,1782.45C5527.41,1776.37 5526.57,1770.3 5526.14,1764.18C5525.33,1752.59 5524.73,1740.98 5524.54,1729.36C5524.43,1722.79 5527.44,1717.82 5533.11,1714.38C5551.32,1703.35 5570.62,1694.73 5590.81,1688.02C5603.59,1683.77 5616.61,1680.49 5629.8,1677.85C5631.85,1677.43 5632.05,1677.52 5632.38,1679.25C5633.76,1686.39 5635.57,1693.42 5637.81,1700.35C5637.88,1700.57 5637.88,1700.82 5637.93,1701.15ZM5798.41,1739.03L5790.71,1801.94L5767.43,1801.94L5772.73,1758.48L5762.55,1758.48L5764.94,1739.03L5798.41,1739.03Z" style="fill:rgb(31,32,41);fill-rule:nonzero;"/>
            </g>
        </g>
    </g>
</svg>
