<?xml version='1.0' encoding='utf-8'?>
<svg xmlns="http://www.w3.org/2000/svg" viewBox="0 0 367 370"><defs>
<clipPath id="clip0_134_7">
<rect width="755" height="803" fill="white" transform="translate(94 51)" />
</clipPath>
</defs>
<g transform="translate(-40 -23) scale(0.46)"><g clip-path="url(#clip0_134_7)">
<path d="M292.022 535.922C293.011 536.972 293.294 538.424 293.819 539.715C309.141 578.211 328.299 614.669 351.696 648.887C371.923 678.424 394.917 705.621 421.079 730.054C449.099 756.202 479.945 778.456 513.84 796.453C522.056 800.791 520.784 800.992 529.404 796.312C553.911 782.935 577.146 767.662 598.585 749.786C607.407 742.422 616.39 735.239 624.626 727.209C626.463 725.414 626.807 725.555 627.533 728.037C630.178 737.096 631.45 746.518 634.619 755.435C637.042 762.335 639.545 769.216 642.088 776.055C642.916 778.275 642.472 779.727 640.615 781.321C616.006 802.344 589.703 820.926 561.481 836.805C553.265 841.445 544.907 845.884 536.489 850.161C526.9 855.003 517.13 854.902 507.44 850.363C477.462 836.34 449.745 818.646 423.421 798.652C408.422 787.273 394.17 775.026 380.624 761.932C352.604 734.896 327.855 705.056 306.477 672.553C295.777 656.291 285.643 639.626 276.579 622.356C272.804 615.133 269.09 607.849 265.416 600.566C264.508 598.73 264.387 597.156 265.235 595.239C273.835 575.971 282.354 556.683 290.893 537.375C291.135 536.85 291.275 536.245 292.022 535.922ZM395.623 478.199C396.108 469.019 396.673 460.182 396.269 451.325C396.148 448.5 395.784 445.716 394.674 443.114C393.463 440.188 391.747 439.28 388.618 439.784C387.851 439.906 387.044 439.926 386.358 440.208C379.494 442.992 372.287 444.001 364.939 444.485C359.589 444.849 355.431 447.512 352.383 451.85C350.485 454.573 348.749 457.398 346.891 460.162C341.744 467.849 336.334 470.109 327.23 468.333C325.07 467.91 322.869 467.526 320.75 466.941C310.979 464.298 303.005 467.768 296 474.245C289.035 480.701 284.937 489.054 281.142 497.548C264.609 534.53 248.742 571.795 231.603 608.495C223.992 624.757 216.14 640.917 208.045 656.937C202.655 667.61 199.727 679.029 196.295 690.348C193.025 701.263 189.937 712.259 183.982 722.145C179.298 729.913 173.1 735.602 163.733 737.055C158.707 737.822 153.7 737.62 148.755 736.652C131.939 733.343 117.021 726.079 104.04 714.882C95.6222 707.598 93.6434 697.874 94.0472 687.382C94.2087 683.63 95.0565 679.978 96.5302 676.467C101.819 663.857 113.285 662.485 123.157 667.489C128.163 670.011 131.999 674.127 136.117 677.799C141.487 682.58 147.584 685.687 154.811 686.373C164.622 687.281 171.809 682.58 177.885 675.579C187.837 664.16 194.801 650.925 200.958 637.225C214.363 607.325 227.787 577.444 241.151 547.544C253.425 520.044 265.618 492.504 277.872 465.004C281.505 456.833 285.24 448.722 288.975 440.612C289.863 438.675 290.408 436.879 289.379 434.761C287.178 430.221 287.683 425.056 291.538 422.03C301.632 414.121 306.618 403.186 310.897 391.665C312.835 386.5 314.572 381.234 316.691 376.13C320.588 366.687 320.568 356.842 319.962 346.955C319.195 334.507 320.365 322.502 326.462 311.325C333.083 299.159 336.576 286.085 336.959 272.244C337.282 260.603 337.101 248.941 336.798 237.28C336.333 219.767 335.566 202.234 339.583 184.943C343.863 166.503 353.957 152.844 371.984 145.762C377.495 143.603 383.309 143.482 389.063 143.099C391.97 142.917 394.836 142.655 397.683 142.171C404.506 141.021 408.987 137.147 411.692 130.852C415.528 122.015 417.748 112.855 418.313 103.231C418.677 97.1988 419 91.1663 419.949 85.1943C422.997 65.6035 439.046 54.2244 455.236 51.7024C471.083 49.241 485.255 53.2358 496.802 64.5746C506.33 73.916 511.679 85.5978 513.576 98.8129C515.898 115.075 513.476 130.832 508.288 146.287C507.38 149.031 506.35 151.714 506.249 154.68C506.148 158.231 507.319 161.136 509.762 163.658C513.799 167.834 518.785 170.599 523.832 173.282C530.897 177.035 538.326 180.101 544.988 184.621C557.241 192.913 565.377 204.494 570.726 218.092C577.085 234.253 579.326 251.141 578.842 268.391C578.62 275.816 577.489 283.18 575.147 290.221C571.534 301.055 571.09 312.092 572.442 323.269C575.208 345.987 579.185 368.503 585.059 390.656C590.308 410.348 596.647 429.656 605.489 448.057C608.981 455.3 611.181 462.987 612.655 470.876C613.826 477.13 616.33 482.698 620.286 487.662C624.364 492.746 628.038 498.052 628.845 504.791C629.33 508.685 629.108 512.599 629.047 516.513C628.805 534.167 631.612 551.417 636.174 568.405C638.314 576.355 642.128 583.477 647.942 589.308C660.519 601.938 667.06 617.574 671.501 634.441C675.196 648.443 677.799 662.667 680.605 676.851C681.938 683.589 684.522 689.662 688.721 695.11C690.941 697.995 693.142 700.92 695.362 703.826C700.066 709.999 703.175 716.98 705.537 724.304C708.04 732.052 711.491 739.315 715.488 746.356C719.647 753.7 723.826 761.024 726.855 768.913C728.954 774.421 730.084 780.07 728.833 785.921C727.036 794.274 721.626 799.883 714.257 803.656C705.96 807.892 697.138 809.123 687.974 807.045C676.507 804.463 670.391 798.148 669.24 786.426C668.13 775.188 665.041 764.595 660.742 754.245C656.704 744.46 654.887 734.009 652.404 723.759C650.203 714.68 645.944 706.832 639.363 700.194C635.265 696.078 631.369 691.821 627.433 687.564C622.951 682.681 620.306 676.83 618.671 670.495C618.207 668.76 617.662 667.045 617.339 665.29C615.381 654.657 609.991 646.022 602.239 638.658C594.003 630.829 586.19 622.618 581.467 612.086C576.823 601.756 572.423 591.325 568.042 580.894C565.66 575.265 563.52 569.515 561.239 563.825C557.827 555.251 552.942 548.048 543.797 544.598C541.072 543.569 539.275 541.37 537.963 538.747C535.681 534.167 534.309 529.224 532.674 524.402C530.292 517.381 527.971 510.359 524.599 503.742C523.792 502.188 522.964 499.586 521.349 499.929C519.915 500.231 521.187 502.733 521.167 504.266C521.066 509.956 521.772 515.666 520.763 521.315C520.036 525.37 518.098 528.659 514.707 531.02C512.123 532.815 509.419 534.449 506.895 536.326C505.523 537.355 503.443 538.424 503.827 540.341C504.17 542.056 506.37 542.399 507.945 542.984C508.409 543.186 508.913 543.347 509.398 543.428C518.785 544.82 522.62 551.357 524.215 559.71C525.224 565.076 525.266 570.524 524.983 575.971C524.599 583.84 525.447 591.588 527.364 599.234C530.312 610.956 534.733 622.255 536.832 634.199C538.568 644.105 538.225 653.85 534.389 663.292C530.594 672.614 522.681 676.608 512.769 674.55C505.986 673.158 501.04 669.426 497.245 663.857C494.358 659.62 492.239 654.96 489.777 650.481C488.545 648.241 487.354 646.002 485.699 644.024C483.72 641.664 482.408 641.704 480.692 644.186C479.683 645.659 478.774 647.212 477.927 648.766C472.96 657.885 464.704 661.88 455.014 663.655C443.83 665.713 435.917 660.347 429.518 652.095C422.957 643.621 419.787 633.573 417.809 623.243C415.164 609.463 413.105 595.582 410.683 581.762C406.868 559.891 402.971 538.041 399.135 516.19C396.895 503.5 396.269 490.688 395.623 478.199ZM540.244 724.768C540.244 734.614 531.806 742.624 521.41 742.624C510.993 742.624 502.554 734.614 502.554 724.768C502.554 714.902 510.993 706.913 521.41 706.913C531.806 706.913 540.244 714.902 540.244 724.768ZM550.963 158.433C552.194 157.888 553.447 157.928 554.678 157.989C577.994 159.078 601.088 161.963 624.101 165.817C658.096 171.506 691.285 180.182 723.826 191.481C760.85 204.353 796.238 220.735 829.849 240.931C839.64 246.803 846.18 254.954 847.957 266.454C848.219 268.028 848.26 269.662 848.28 271.276C848.421 284.733 848.2 298.17 847.554 311.587C846.988 323.471 845.736 335.314 844.767 347.157C843.637 360.877 841.981 374.556 840.185 388.195C837.278 410.388 833.2 432.36 828.193 454.17C818.766 495.208 806.029 535.176 789.435 573.913C775.687 605.973 759.315 636.62 740.379 665.956C734.424 675.176 728.348 684.275 721.808 693.112C720.051 695.493 720.051 695.433 718.335 693.072C715.246 688.795 712.178 684.517 708.948 680.341C706.829 677.557 705.657 674.45 704.971 671.06C702.871 660.73 701.318 650.299 698.714 640.07C698.31 638.476 698.774 637.306 699.581 636.035C726.329 593.645 747.284 548.573 762.828 500.917C773.709 467.547 781.744 433.469 787.537 398.888C790.949 378.531 793.29 357.992 794.965 337.392C796.358 320.364 797.267 303.315 797.469 286.206C797.51 282.07 795.895 279.528 792.422 277.591C759.376 259.17 724.734 244.442 688.599 233.245C665.828 226.163 642.653 220.715 619.216 216.277C612.11 214.925 605.004 213.694 597.838 212.726C596.142 212.504 595.133 211.818 594.487 210.123C589.763 197.574 582.92 186.295 573.735 176.45C567.699 169.993 560.855 164.586 553.164 160.248C552.397 159.804 551.387 159.603 550.963 158.433ZM229.624 509.896C228.332 505.699 226.98 501.502 225.749 497.286C217.27 468.192 210.628 438.675 205.864 408.754C202.594 388.195 199.565 367.575 197.647 346.835C196.961 339.39 196.638 331.904 196.073 324.459C194.761 307.411 194.378 290.322 193.913 273.233C193.55 259.211 199.667 248.841 211.456 241.678C234.005 228.039 257.442 216.156 281.687 205.866C290.933 201.952 300.259 198.219 309.726 194.809C312.411 193.841 312.452 193.922 312.311 196.666C311.968 203.889 311.362 211.091 311.342 218.314C311.302 227.414 311.665 236.513 311.988 245.592C312.068 247.549 311.443 248.518 309.647 249.224C289.096 257.476 269.231 267.241 249.872 277.974C245.148 280.617 244.704 281.666 245.087 287.174C245.632 295.305 246.016 303.477 246.279 311.628C246.965 332.711 248.761 353.694 251.81 374.596C254.797 394.954 257.785 415.291 262.146 435.406C262.489 436.96 262.328 438.372 261.662 439.865C251.548 462.543 241.475 485.241 231.381 507.939C231.078 508.624 230.654 509.23 230.291 509.896C230.069 509.896 229.847 509.896 229.624 509.896ZM392.817 337.211C392.716 334.487 392.757 331.783 392.374 329.06C391.082 320.243 388.8 311.567 388.113 302.649C388.073 302.226 388.174 301.681 387.67 301.54C386.983 301.358 386.62 301.984 386.196 302.367C381.715 306.483 379.212 311.729 377.778 317.519C376.345 323.39 375.032 329.281 373.599 335.153C372.145 341.084 369.743 346.592 365.746 351.314C362.617 355.006 359.185 358.435 355.633 361.744C350.525 366.506 344.914 370.803 340.392 376.069C332.579 385.108 327.593 395.862 323.919 407.221C323.737 407.786 323.616 408.371 323.535 408.956C322.829 413.818 323.737 415.029 328.542 415.876C330.419 416.219 332.256 416.159 334.133 415.977C340.815 415.372 347.174 413.475 353.371 411.115C365.847 406.353 377.676 400.442 387.911 391.665C393.019 387.287 395.099 382.122 392.878 375.565C392.676 374.98 392.575 374.395 392.374 373.83C390.193 367.152 390.051 360.332 391.101 353.412C391.909 348.045 393.019 342.678 392.817 337.211Z" fill="#1F2029" />
</g>
<path d="M743.5 417H625C625 417 696.4 359 702 345C707 332.5 705.5 323.5 694 323.5C682.5 323.5 679.5 329.5 679.5 340.028H636.5C640.881 306.804 660.024 287.355 697.5 286C738.983 284.5 747 308.972 749 317C750.37 322.5 749 332.5 748 338.5C747 344.5 712.5 383.075 704 383.5C695.5 383.925 743.5 383.5 743.5 383.5V417Z" fill="#1F2029" />
</g></svg>

