<?xml version="1.0" encoding="UTF-8" standalone="no"?>
<!DOCTYPE svg PUBLIC "-//W3C//DTD SVG 1.1//EN" "http://www.w3.org/Graphics/SVG/1.1/DTD/svg11.dtd">
<svg width="100%" height="100%" viewBox="0 0 367 370" version="1.1" xmlns="http://www.w3.org/2000/svg" xmlns:xlink="http://www.w3.org/1999/xlink" xml:space="preserve" xmlns:serif="http://www.serif.com/" style="fill-rule:evenodd;clip-rule:evenodd;stroke-linejoin:round;stroke-miterlimit:2;">
    <g transform="translate(20 0) scale(0.79)">
        <g transform="matrix(1,0,0,1,-258.322,-207.442)">
            <g transform="matrix(4.16667,0,0,4.16667,0,0)">
                <g transform="matrix(0.24,0,0,0.24,0,0)">
                    <path d="M347.617,334.871C368.204,357.054 388.796,379.233 409.404,401.433C407.837,402.854 406.288,404.263 404.558,405.829C403.396,404.579 401.867,402.933 400.338,401.288C386.129,385.975 371.817,370.758 357.758,355.308C351.979,348.954 346.758,342.088 341.271,335.462C339.204,332.967 336.692,331.054 333.529,330.263C329.963,329.371 327.483,327.183 325.992,324C322.858,317.296 318.208,311.813 313.129,306.517C301.775,294.683 290.658,282.625 279.475,270.629C275.371,266.233 270.725,262.537 265.383,259.792C260.571,257.317 258.421,253.558 258.333,248.1C258.158,237.179 260.075,226.737 264.692,216.862C265.879,214.321 267.567,211.871 269.521,209.85C273.512,205.729 280.971,207.138 283.613,212.246C284.483,213.929 284.621,215.625 283.762,217.321C283,218.825 282.304,220.396 281.304,221.737C276.346,228.383 274.742,236.054 274.292,244.096C274.146,246.733 273.833,249.392 273.992,252.017C274.296,256.996 276.604,261.133 280.033,264.679C290.108,275.092 300.179,285.508 310.275,295.904C315.287,301.071 321.15,305.058 327.467,308.483C331.4,310.612 335.379,312.787 338.896,315.513C346.883,321.7 355.987,324.7 365.804,326.162C372.987,327.233 380.162,328.404 387.287,329.808C395.3,331.383 402.671,334.721 409.55,339.046C419.263,345.15 429.917,348.267 441.25,348.508C453.292,348.767 465.35,348.317 477.4,348.158C477.983,348.15 478.567,348.013 479.142,347.896C483.242,347.05 484.671,344.596 483.187,340.621C482.012,337.463 480.687,334.35 479.304,331.275C475.358,322.504 476.971,312.358 483.488,305.475C490.046,298.542 500.304,296.292 509.262,299.792C514.517,301.846 517.4,305.9 518.808,311.137C521.204,320.054 520.675,328.883 517.796,337.612C517.496,338.517 517.204,339.429 516.992,340.354C516.325,343.262 517.188,345.429 520,346.367C523.808,347.633 527.717,348.883 531.675,349.371C544.721,350.963 557.792,352.421 570.892,353.5C580.196,354.271 589.363,352.829 598.288,350.037C604.712,348.029 611.196,348.592 617.733,349.287C628.346,350.417 638.987,351 649.633,349.583C653.858,349.021 657.413,346.925 660.588,344.258C665.313,340.283 669.892,336.133 674.55,332.075C675.379,331.354 676.213,330.554 677.192,330.121C677.967,329.775 679.288,329.554 679.775,329.971C680.287,330.413 680.492,331.883 680.142,332.533C679.358,333.971 678.288,335.338 677.079,336.458C673.642,339.65 673.708,339.55 676.604,343.338C677.892,345.025 679,347.079 679.442,349.129C680.125,352.304 679.125,354.083 676.058,355.192C672.071,356.633 667.942,357.717 663.829,358.763C646.567,363.154 629.204,367.096 611.571,369.671C604.167,370.754 596.65,371.087 589.229,372.096C580.004,373.346 570.758,374.596 561.654,376.483C552,378.483 545.967,384.933 542.708,394.1C539.946,401.875 539.333,410.004 538.713,418.142C537.529,433.571 536.521,449.017 535.058,464.421C533.921,476.446 530.162,487.783 524.737,498.583C520.983,506.054 517.479,513.65 513.771,521.146C510.567,527.625 507.996,534.308 506.588,541.417C505.85,545.117 504.187,548.325 501.529,551.025C500.867,551.696 500.317,552.5 499.829,553.312C498.292,555.879 498.358,556.225 500.8,557.904C504.096,560.171 504.296,563.354 503.754,566.917C502.392,575.833 500.975,584.746 499.908,593.7C499.029,601.079 497.458,608.05 491.971,613.512C489.754,615.721 487.171,617.104 483.937,617.05C478.379,616.958 474.479,612.638 475.046,607.167C475.571,602.104 474.15,600.329 469.1,599.725C468.004,599.596 466.908,599.479 465.817,599.329C459.454,598.471 455.142,592.633 455.558,585.346C455.862,579.946 457.979,575.117 460.437,570.4C463.858,563.825 467.204,557.217 470.588,550.621C472.05,547.763 472.029,544.737 471.967,541.604C471.9,538.5 472.471,535.379 472.758,532.267C472.862,531.104 473.346,529.771 472.942,528.817C472.429,527.604 471.371,526.392 470.229,525.729C468.875,524.95 467.492,525.708 466.617,526.987C465.337,528.863 463.988,530.712 462.917,532.708C459.763,538.583 456.792,544.558 453.638,550.437C448.154,560.654 442.371,570.721 437.142,581.067C434.238,586.808 432.479,593.117 429.712,598.937C425.275,608.275 420.708,617.583 415.667,626.608C410.433,635.979 407.171,645.896 405.379,656.4C404.896,659.217 404.275,662.012 403.6,664.792C402.638,668.771 400.133,670.654 396.083,670.358C391.467,670.021 386.85,669.638 382.254,669.071C376.154,668.317 374.104,663.425 377.775,658.562C378.521,657.571 379.35,656.563 380.35,655.858C383.9,653.358 386.158,649.879 388.083,646.117C393.558,635.413 397.712,624.171 400.367,612.496C404.425,594.633 411.071,577.921 420.517,562.246C423.504,557.283 426.171,552.096 428.55,546.817C429.754,544.146 430.242,541.062 430.562,538.112C430.704,536.758 429.937,535.067 429.088,533.887C426.879,530.821 426.746,527.829 428.142,524.362C432.792,512.804 437.383,501.221 441.737,489.546C443.296,485.375 443.754,480.792 445.333,476.633C447.975,469.65 450.683,462.629 454.146,456.037C459.567,445.733 462.958,434.938 464.012,423.387C464.6,417.025 463.1,410.958 460.796,405.112C458.517,399.325 456.892,393.446 456.608,387.192C456.437,383.412 454.292,380.704 450.963,379.104C448.196,377.775 445.171,376.958 442.433,375.571C438.992,373.829 435.492,372.042 432.438,369.717C428.367,366.617 423.842,364.754 419.079,363.167C406.979,359.133 394.767,355.383 382.879,350.788C375.4,347.9 368.462,343.612 361.213,340.108C356.842,337.996 352.333,336.175 347.887,334.225C347.796,334.442 347.704,334.658 347.617,334.871ZM421.496,637.687C425.525,629.996 429.433,622.533 433.446,614.867C437.004,616.817 440.521,618.608 443.892,620.642C446.033,621.938 447.854,621.971 450.012,620.675C454.854,617.767 459.804,615.05 464.671,612.283C468.575,622.904 476.092,627.808 487.679,627.146C487.008,627.758 486.671,628.192 486.229,628.454C475.625,634.733 465.075,641.117 454.358,647.204C449.846,649.767 444.983,649.7 440.25,647.283C434.575,644.383 428.863,641.542 423.175,638.667C422.667,638.408 422.187,638.092 421.496,637.687ZM505.054,613.879C507.571,608.525 508.717,602.887 509.529,597.162C510.696,588.954 511.796,580.733 513.063,572.542C513.275,571.175 513.95,569.7 514.846,568.65C542.95,535.771 561.217,497.838 572.675,456.392C577.375,439.388 580.654,422.096 582.717,404.583C583.488,398.021 583.979,391.425 584.613,384.846C584.671,384.196 584.8,383.55 584.929,382.679C593.279,381.871 601.587,381.067 610.313,380.221C610.083,383.767 610.033,387.112 609.621,390.417C607.962,403.746 606.712,417.158 604.375,430.371C594.183,488 572.138,540.338 533.971,585.292C525.579,595.175 516.346,604.242 506.567,612.754C506.096,613.162 505.558,613.504 505.054,613.879ZM378.892,585.146L309.167,585.146C309.167,583.237 308.892,581.362 309.279,579.633C309.483,578.717 310.712,577.671 311.692,577.371C312.971,576.979 314.458,577.25 315.854,577.267C317.537,577.283 318.558,576.717 318.896,574.846C319.575,571.121 323.612,567.533 327.408,567.104C328.817,566.942 329.587,566.333 329.462,564.842C329.263,562.379 330.354,560.8 332.458,559.462C336.717,556.758 337.713,552.258 338.175,547.646C338.225,547.146 337.212,546.125 336.604,546.046C334.854,545.825 334.408,545 334.146,543.329C333.883,541.617 333.25,539.675 332.121,538.446C326.367,532.187 321.354,525.417 317.304,517.954C315.992,515.525 314.183,514.463 311.429,514.646C305.292,515.054 299.262,514.433 293.379,512.521C280.992,508.492 275.617,501.242 274.671,488.271C273.896,477.658 272.371,467.1 271.471,456.492C270.95,450.287 270.517,444.008 270.892,437.817C271.483,428.137 280.938,422.346 290.521,425.333C297.204,427.412 302.258,431.704 305.983,437.479C308.229,440.967 311.137,442.287 315.192,442.267C334.533,442.163 353.875,442.175 373.217,442.246C377.204,442.258 380.1,440.9 382.096,437.346C384.896,432.371 388.921,428.513 393.854,425.671C398.854,422.792 404.062,421.917 409.683,424.054C413.683,425.575 416.046,428.375 417.342,432.254C419.175,437.746 419.079,443.379 418.467,449.046C417.192,460.8 415.937,472.554 414.638,484.304C414.292,487.437 414,490.596 413.363,493.679C412.104,499.771 408.558,504.321 403.246,507.479C396.633,511.408 389.429,513.271 381.767,512.883C377.125,512.65 374.2,514.454 372.163,518.612C368.675,525.721 363.829,531.929 358.396,537.663C356.771,539.379 355.567,541.192 355.679,543.679C355.746,545.063 355.042,545.917 353.596,545.987C352.129,546.062 351.817,546.875 351.896,548.208C352.175,553.079 353.625,557.246 358.175,559.825C359.967,560.842 360.467,562.663 360.333,564.587C360.2,566.508 360.933,567.329 362.867,567.142C364.496,566.979 366.004,567.125 366.554,569.079C366.608,569.267 366.804,569.542 366.954,569.554C369.971,569.846 370.279,572.229 370.779,574.458C371.217,576.408 372.471,577.283 374.421,577.271C375.304,577.263 376.279,577.046 377.042,577.35C377.771,577.637 378.729,578.425 378.808,579.088C379.042,581.029 378.892,583.017 378.892,585.146ZM311.242,507.104C311.154,506.558 311.133,506.196 311.042,505.854C310.904,505.362 310.75,504.871 310.55,504.4C305.663,492.854 302.496,480.838 300.571,468.467C299.954,464.492 300.575,462.808 303.971,460.746C307.233,458.767 308.738,455.679 309.579,452.15C309.871,450.912 309.45,449.992 308.038,450.242C304.937,450.792 303.783,449.042 302.533,446.55C299.317,440.142 294.746,434.967 287.575,432.796C283.246,431.488 280.35,433.342 279.075,437.642C277.729,442.179 278.396,446.683 278.85,451.2C280.1,463.608 281.542,476.004 282.679,488.425C283.271,494.883 285.171,500.262 291.442,503.342C297.696,506.417 304.354,506.917 311.242,507.104ZM379.442,504.904C387.004,505.283 394.1,504.35 400.379,499.979C403.475,497.833 405.521,494.987 405.938,491.129C406.329,487.55 406.763,483.979 407.15,480.4C408.275,470.033 409.596,459.679 410.4,449.283C410.763,444.583 410.35,439.763 409.754,435.062C409.346,431.817 406.621,430.367 403.367,430.858C395.283,432.075 387.162,440.275 386.067,448.392C385.896,449.663 385.346,450.238 384.087,450.213C383.5,450.2 382.913,450.229 382.325,450.287C380.758,450.446 379.992,450.921 380.525,452.846C381.638,456.858 384.042,459.725 387.521,461.804C389.2,462.808 390.167,464.171 389.729,466.171C387.892,474.629 386.2,483.117 384.083,491.504C382.942,496.021 381.046,500.346 379.442,504.904ZM312.254,412.892C303.692,409.983 295.292,407.162 286.942,404.212C286.246,403.967 285.471,402.883 285.392,402.125C283.788,386.687 282.837,371.213 282.867,355.687C282.875,349.925 285.433,345.542 290.217,342.692C297.088,338.6 304.163,334.854 311.196,331.042C311.675,330.779 312.879,330.95 313.15,331.337C317.938,338.254 324.542,343.163 331.271,347.946C331.629,348.2 331.962,348.488 332.504,348.917C331.533,349.442 330.679,349.925 329.808,350.371C323.467,353.608 317.142,356.883 310.763,360.046C308.937,360.946 308.142,362.146 308.258,364.192C309.175,379.813 309.396,395.487 312.092,410.962C312.204,411.6 312.204,412.262 312.254,412.892ZM529.462,310.654C553.6,317.392 576.367,326.733 597.825,339.175C597.842,339.412 597.858,339.654 597.871,339.892C593.362,340.896 588.883,342.1 584.329,342.875C575.975,344.296 567.621,343.004 559.296,342.287C552.283,341.688 545.288,340.812 538.329,339.8C535.675,339.417 533.142,338.25 530.525,337.546C529.083,337.158 528.85,336.396 528.988,334.983C529.517,329.671 530.033,324.346 530.233,319.017C530.337,316.342 529.762,313.638 529.462,310.654ZM474.071,300.4C467.279,313.121 467.279,313.121 466.925,324.775C466.233,324.808 465.521,324.854 464.813,324.871C451.587,325.154 438.363,325.367 425.142,325.758C421.113,325.875 417.092,326.425 413.079,326.9C410.688,327.179 408.538,326.938 406.329,325.783C398.233,321.538 389.375,319.779 380.479,318.196C372.975,316.858 365.479,315.479 357.983,314.1C357.371,313.987 356.787,313.733 356.208,313.329C394.562,301.154 433.85,297.917 474.071,300.4Z" style="fill:rgb(31,32,41);fill-rule:nonzero;"/>
                </g>
            </g>
        </g>
    </g>
</svg>
